<?xml version="1.0" encoding="UTF-8" standalone="no"?>
<!-- Created with Inkscape (http://www.inkscape.org/) -->

<svg
   xmlns:dc="http://purl.org/dc/elements/1.1/"
   xmlns:cc="http://creativecommons.org/ns#"
   xmlns:rdf="http://www.w3.org/1999/02/22-rdf-syntax-ns#"
   xmlns:svg="http://www.w3.org/2000/svg"
   xmlns="http://www.w3.org/2000/svg"
   xmlns:sodipodi="http://sodipodi.sourceforge.net/DTD/sodipodi-0.dtd"
   xmlns:inkscape="http://www.inkscape.org/namespaces/inkscape"
   id="svg2"
   version="1.1"
   inkscape:version="0.91 r13725"
   xml:space="preserve"
   width="69.772499"
   height="69.318748"
   viewBox="0 0 69.772499 69.318748"
   sodipodi:docname="logo-only.svg"><metadata
     id="metadata8"><rdf:RDF><cc:Work
         rdf:about=""><dc:format>image/svg+xml</dc:format><dc:type
           rdf:resource="http://purl.org/dc/dcmitype/StillImage" /><dc:title></dc:title></cc:Work></rdf:RDF></metadata><defs
     id="defs6"><clipPath
       clipPathUnits="userSpaceOnUse"
       id="clipPath22"><path
         d="m 0,64.834 435.165,0 L 435.165,0 0,0 0,64.834 Z"
         id="path24"
         inkscape:connector-curvature="0" /></clipPath><clipPath
       clipPathUnits="userSpaceOnUse"
       id="clipPath46"><path
         d="m 289.385,32.423 c 0,-13.948 10.24,-25.471 23.605,-27.546 l 0,0 0,14.296 c -4.164,1.7 -7.102,5.78 -7.102,10.561 l 0,0 c 0,6.297 5.108,11.403 11.407,11.403 l 0,0 c 6.299,0 11.404,-5.106 11.404,-11.403 l 0,0 c 0,-4.779 -2.935,-8.861 -7.099,-10.561 l 0,0 0,-14.294 c 13.365,2.075 23.603,13.599 23.603,27.544 l 0,0 c 0,15.415 -12.496,27.909 -27.91,27.909 l 0,0 c -15.412,0 -27.908,-12.494 -27.908,-27.909"
         id="path48"
         inkscape:connector-curvature="0" /></clipPath><radialGradient
       fx="0"
       fy="0"
       cx="0"
       cy="0"
       r="1"
       gradientUnits="userSpaceOnUse"
       gradientTransform="matrix(56.818466,0,0,-56.818451,317.51953,3.7753906)"
       spreadMethod="pad"
       id="radialGradient54"><stop
         style="stop-opacity:1;stop-color:#afe3f7"
         offset="0"
         id="stop56" /><stop
         style="stop-opacity:1;stop-color:#afe3f7"
         offset="0.01812073"
         id="stop58" /><stop
         style="stop-opacity:1;stop-color:#258dd5"
         offset="0.565079"
         id="stop60" /><stop
         style="stop-opacity:1;stop-color:#2271c0"
         offset="0.86914726"
         id="stop62" /><stop
         style="stop-opacity:1;stop-color:#2271c0"
         offset="1"
         id="stop64" /></radialGradient><clipPath
       clipPathUnits="userSpaceOnUse"
       id="clipPath72"><path
         d="m 295.246,39.033 c 0,-7.936 5.844,-14.701 14.074,-17.414 l 0,0 c -2.105,2.068 -3.432,4.926 -3.432,8.115 l 0,0 c 0,6.297 5.108,11.403 11.407,11.403 l 0,0 c 6.299,0 11.404,-5.106 11.404,-11.403 l 0,0 c 0,-3.187 -1.324,-6.044 -3.429,-8.113 l 0,0 c 8.228,2.713 14.07,9.478 14.07,17.412 l 0,0 c 0,10.322 -9.872,18.691 -22.047,18.691 l 0,0 c -12.176,0 -22.047,-8.369 -22.047,-18.691 m 9.734,10.321 c 0,1.734 1.405,3.138 3.137,3.138 l 0,0 c 1.732,0 3.134,-1.404 3.134,-3.138 l 0,0 c 0,-1.731 -1.402,-3.135 -3.134,-3.135 l 0,0 c -1.732,0 -3.137,1.404 -3.137,3.135"
         id="path74"
         inkscape:connector-curvature="0" /></clipPath><radialGradient
       fx="0"
       fy="0"
       cx="0"
       cy="0"
       r="1"
       gradientUnits="userSpaceOnUse"
       gradientTransform="matrix(45.282013,0,0,-45.282013,318.71484,12.181641)"
       spreadMethod="pad"
       id="radialGradient80"><stop
         style="stop-opacity:1;stop-color:#afe3f7"
         offset="0"
         id="stop82" /><stop
         style="stop-opacity:1;stop-color:#afe3f7"
         offset="0.120636"
         id="stop84" /><stop
         style="stop-opacity:1;stop-color:#afe3f7"
         offset="0.12543084"
         id="stop86" /><stop
         style="stop-opacity:1;stop-color:#10a9ea"
         offset="0.577774"
         id="stop88" /><stop
         style="stop-opacity:1;stop-color:#10a9ea"
         offset="0.78273403"
         id="stop90" /><stop
         style="stop-opacity:1;stop-color:#7bd4f6"
         offset="1"
         id="stop92" /></radialGradient><clipPath
       clipPathUnits="userSpaceOnUse"
       id="clipPath100"><path
         d="m 0,64.834 435.165,0 L 435.165,0 0,0 0,64.834 Z"
         id="path102"
         inkscape:connector-curvature="0" /></clipPath></defs><sodipodi:namedview
     pagecolor="#ffffff"
     bordercolor="#666666"
     borderopacity="1"
     objecttolerance="10"
     gridtolerance="10"
     guidetolerance="10"
     inkscape:pageopacity="0"
     inkscape:pageshadow="2"
     inkscape:window-width="1440"
     inkscape:window-height="775"
     id="namedview4"
     showgrid="false"
     inkscape:zoom="0.66181795"
     inkscape:cx="-223.92235"
     inkscape:cy="-86.453849"
     inkscape:window-x="0"
     inkscape:window-y="1"
     inkscape:window-maximized="1"
     inkscape:current-layer="g10"
     fit-margin-top="0"
     fit-margin-left="0"
     fit-margin-right="0"
     fit-margin-bottom="0" /><g
     id="g10"
     inkscape:groupmode="layer"
     inkscape:label="Official Logo gray 85prc"
     transform="matrix(1.25,0,0,-1.25,-361.73125,75.415)"><g
       id="g42"><g
         id="g44"
         clip-path="url(#clipPath46)"><g
           id="g50"><g
             id="g52"><path
               d="m 289.385,32.423 c 0,-13.948 10.24,-25.471 23.605,-27.546 l 0,0 0,14.296 c -4.164,1.7 -7.102,5.78 -7.102,10.561 l 0,0 c 0,6.297 5.108,11.403 11.407,11.403 l 0,0 c 6.299,0 11.404,-5.106 11.404,-11.403 l 0,0 c 0,-4.779 -2.935,-8.861 -7.099,-10.561 l 0,0 0,-14.294 c 13.365,2.075 23.603,13.599 23.603,27.544 l 0,0 c 0,15.415 -12.496,27.909 -27.91,27.909 l 0,0 c -15.412,0 -27.908,-12.494 -27.908,-27.909"
               style="fill:url(#radialGradient54);stroke:none"
               id="path66"
               inkscape:connector-curvature="0" /></g></g></g></g><g
       id="g68"><g
         id="g70"
         clip-path="url(#clipPath72)"><g
           id="g76"><g
             id="g78"><path
               d="m 295.246,39.033 c 0,-7.936 5.844,-14.701 14.074,-17.414 l 0,0 c -2.105,2.068 -3.432,4.926 -3.432,8.115 l 0,0 c 0,6.297 5.108,11.403 11.407,11.403 l 0,0 c 6.299,0 11.404,-5.106 11.404,-11.403 l 0,0 c 0,-3.187 -1.324,-6.044 -3.429,-8.113 l 0,0 c 8.228,2.713 14.07,9.478 14.07,17.412 l 0,0 c 0,10.322 -9.872,18.691 -22.047,18.691 l 0,0 c -12.176,0 -22.047,-8.369 -22.047,-18.691 m 9.734,10.321 c 0,1.734 1.405,3.138 3.137,3.138 l 0,0 c 1.732,0 3.134,-1.404 3.134,-3.138 l 0,0 c 0,-1.731 -1.402,-3.135 -3.134,-3.135 l 0,0 c -1.732,0 -3.137,1.404 -3.137,3.135"
               style="fill:url(#radialGradient80);stroke:none"
               id="path94"
               inkscape:connector-curvature="0" /></g></g></g></g><g
       id="g96"><g
         id="g98"
         clip-path="url(#clipPath100)"><g
           id="g104"
           transform="translate(308.1172,52.4912)"><path
             d="m 0,0 c -1.732,0 -3.137,-1.403 -3.137,-3.137 0,-1.731 1.405,-3.134 3.137,-3.134 1.732,0 3.135,1.403 3.135,3.134 C 3.135,-1.403 1.732,0 0,0"
             style="fill:#ffffff;fill-opacity:1;fill-rule:nonzero;stroke:none"
             id="path106"
             inkscape:connector-curvature="0" /></g></g></g></g></svg>