<svg id="Calque_1" data-name="Calque 1" xmlns="http://www.w3.org/2000/svg" viewBox="0 0 1542.27 339.06"><defs><style>.cls-1{fill:#00aef5;}</style></defs><path class="cls-1" d="M1372.74,0c-93.48,0-169.53,76.05-169.53,169.53,0,75.76,50,140.07,118.67,161.72V295.18a135.78,135.78,0,0,1-84.76-125.66c0-74.78,60.84-135.62,135.63-135.62s135.62,60.84,135.62,135.62c0,69-51.87,126.15-118.67,134.53V235.11a67.81,67.81,0,1,0-33.91,0V338.2a169.67,169.67,0,0,0,17,.86c93.47,0,169.52-76.05,169.52-169.53S1466.22,0,1372.74,0Zm-33.9,169.53a33.91,33.91,0,1,1,33.9,33.9A33.94,33.94,0,0,1,1338.84,169.53Z"/><path d="M69.75,277.27,0,99.34H29.18L85.4,248.8,141.27,99.34h29.18L101.06,277.27Z"/><path d="M194.29,69.46V34.58h28.82V69.46Zm1.08,207.81V99.34h26.68V277.27Z"/><path d="M343.39,280.12q-26,0-45.36-12.28A83,83,0,0,1,268,234.57a100.49,100.49,0,0,1-10.68-46.25q0-25.63,10.68-46.44A83.4,83.4,0,0,1,298,108.78q19.38-12.27,45.36-12.28,22.07,0,37.9,8.54a72.2,72.2,0,0,1,25.8,23.13v-100h26.68v249.1H407.09V248.8a73.55,73.55,0,0,1-25.8,22.78Q365.44,280.12,343.39,280.12Zm3.56-24.2q19.92,0,33.63-9.26a58.87,58.87,0,0,0,20.81-24.73,83.41,83.41,0,0,0,0-67.44,59.17,59.17,0,0,0-20.81-24.55q-13.71-9.24-33.63-9.25-19.57,0-33.81,9.25a60.32,60.32,0,0,0-21.71,24.55,79.84,79.84,0,0,0,0,67.44,59.93,59.93,0,0,0,21.71,24.73Q327.38,255.95,347,255.92Z"/><path d="M479,69.46V34.58h28.83V69.46ZM480,277.27V99.34h26.68V277.27Z"/><path d="M553,277.27V99.34h26.68V127.1a89.25,89.25,0,0,1,23.49-21.7q13.88-8.9,35.58-8.9a72.13,72.13,0,0,1,34.7,8.72q16.19,8.72,26.33,26t10.14,42.53V277.28H683.21V174.44q0-24.18-13.87-39T633.4,120.71a54.51,54.51,0,0,0-27,6.76,51.65,51.65,0,0,0-19.4,19q-7.29,12.27-7.29,28.29V277.29H553Z"/><path d="M831.6,280.12q-27,0-47-12.28A81.83,81.83,0,0,1,754,234.57a100.49,100.49,0,0,1-10.68-46.25q0-25.63,10.68-46.44a82.2,82.2,0,0,1,30.6-33.1q19.92-12.27,47-12.28,27.39,0,47.15,12.28a82.63,82.63,0,0,1,30.43,33.1q10.68,20.81,10.67,46.44,0,25.26-10.67,46.25a82.32,82.32,0,0,1-30.43,33.27Q859,280.11,831.6,280.12Zm0-24.2q19.92,0,33.63-9.26A59,59,0,0,0,886,221.93a83.41,83.41,0,0,0,0-67.44,59.24,59.24,0,0,0-20.81-24.55q-13.71-9.24-33.63-9.25-19.59,0-33.44,9.25a58.56,58.56,0,0,0-21,24.55,83.41,83.41,0,0,0,0,67.44,58.36,58.36,0,0,0,21,24.73Q812,255.95,831.6,255.92Z"/><path d="M974.3,277.27V122.83H938V99.34h36.3V35.65H1001V99.34h40.93v23.49H1001V277.27Z"/><path d="M1070,69.46V34.58h28.82V69.46Zm1.06,207.81V99.34h26.69V277.27Z"/></svg>